<svg width="38" height="38" viewBox="0 0 38 38" fill="none" xmlns="http://www.w3.org/2000/svg">
<rect x="8" y="12" width="14" height="16" fill="white"/>
<mask id="path-2-outside-1_65_2" maskUnits="userSpaceOnUse" x="4" y="4" width="29" height="30" fill="black">
<rect fill="white" x="4" y="4" width="29" height="30"/>
<path d="M16.6425 30.3964C14.9653 30.3964 13.4406 30.0457 12.0684 29.3444C10.7063 28.643 9.62373 27.6011 8.82072 26.2187C8.0177 24.8363 7.61619 23.1286 7.61619 21.0957C7.61619 19.1136 7.92622 17.2788 8.54627 15.5915C9.16632 13.894 10.0507 12.415 11.1993 11.1546C12.3479 9.88397 13.7201 8.89799 15.316 8.19662C16.922 7.48508 18.7059 7.12932 20.6677 7.12932C22.3754 7.12932 23.9103 7.47492 25.2724 8.16612C26.6344 8.85733 27.7119 9.88397 28.5048 11.246C29.3078 12.6081 29.7093 14.3005 29.7093 16.3233C29.7093 18.2953 29.3942 20.1351 28.764 21.8428C28.1439 23.5403 27.2545 25.0345 26.0957 26.3254C24.9369 27.6062 23.5596 28.6074 21.9637 29.3291C20.3679 30.0407 18.5941 30.3964 16.6425 30.3964ZM17.1914 25.6393C18.2892 25.6393 19.2345 25.3598 20.0274 24.8007C20.8202 24.2417 21.4707 23.5047 21.979 22.5899C22.4872 21.6751 22.8633 20.6688 23.1073 19.571C23.3512 18.463 23.4732 17.3601 23.4732 16.2623C23.4732 15.1442 23.3207 14.2701 23.0158 13.6398C22.7108 12.9995 22.3043 12.5471 21.796 12.2828C21.2979 12.0186 20.7389 11.8864 20.1188 11.8864C19.0109 11.8864 18.0605 12.1507 17.2676 12.6793C16.4748 13.2078 15.8242 13.9143 15.316 14.7986C14.8179 15.683 14.452 16.6689 14.2182 17.7566C13.9844 18.8442 13.8675 19.9521 13.8675 21.0804C13.8675 22.8084 14.1877 24.0028 14.8281 24.6635C15.4685 25.3141 16.2562 25.6393 17.1914 25.6393Z"/>
</mask>
<path d="M16.6425 30.3964C14.9653 30.3964 13.4406 30.0457 12.0684 29.3444C10.7063 28.643 9.62373 27.6011 8.82072 26.2187C8.0177 24.8363 7.61619 23.1286 7.61619 21.0957C7.61619 19.1136 7.92622 17.2788 8.54627 15.5915C9.16632 13.894 10.0507 12.415 11.1993 11.1546C12.3479 9.88397 13.7201 8.89799 15.316 8.19662C16.922 7.48508 18.7059 7.12932 20.6677 7.12932C22.3754 7.12932 23.9103 7.47492 25.2724 8.16612C26.6344 8.85733 27.7119 9.88397 28.5048 11.246C29.3078 12.6081 29.7093 14.3005 29.7093 16.3233C29.7093 18.2953 29.3942 20.1351 28.764 21.8428C28.1439 23.5403 27.2545 25.0345 26.0957 26.3254C24.9369 27.6062 23.5596 28.6074 21.9637 29.3291C20.3679 30.0407 18.5941 30.3964 16.6425 30.3964ZM17.1914 25.6393C18.2892 25.6393 19.2345 25.3598 20.0274 24.8007C20.8202 24.2417 21.4707 23.5047 21.979 22.5899C22.4872 21.6751 22.8633 20.6688 23.1073 19.571C23.3512 18.463 23.4732 17.3601 23.4732 16.2623C23.4732 15.1442 23.3207 14.2701 23.0158 13.6398C22.7108 12.9995 22.3043 12.5471 21.796 12.2828C21.2979 12.0186 20.7389 11.8864 20.1188 11.8864C19.0109 11.8864 18.0605 12.1507 17.2676 12.6793C16.4748 13.2078 15.8242 13.9143 15.316 14.7986C14.8179 15.683 14.452 16.6689 14.2182 17.7566C13.9844 18.8442 13.8675 19.9521 13.8675 21.0804C13.8675 22.8084 14.1877 24.0028 14.8281 24.6635C15.4685 25.3141 16.2562 25.6393 17.1914 25.6393Z" fill="black"/>
<path d="M12.0684 29.3444L10.6532 32.0926L10.6615 32.0969L12.0684 29.3444ZM8.82072 26.2187L11.4937 24.666L11.4937 24.666L8.82072 26.2187ZM8.54627 15.5915L11.4478 16.6577L11.4498 16.6521L8.54627 15.5915ZM11.1993 11.1546L13.4841 13.2367L13.4924 13.2275L11.1993 11.1546ZM15.316 8.19662L16.5597 11.0266L16.5681 11.0229L15.316 8.19662ZM25.2724 8.16612L23.8735 10.9227L23.8735 10.9227L25.2724 8.16612ZM28.5048 11.246L25.8332 12.8011C25.8361 12.8061 25.839 12.811 25.8419 12.8159L28.5048 11.246ZM28.764 21.8428L25.8639 20.7725L25.8604 20.7822L28.764 21.8428ZM26.0957 26.3254L28.388 28.3994L28.3961 28.3903L26.0957 26.3254ZM21.9637 29.3291L23.2225 32.1524C23.2275 32.1502 23.2325 32.1479 23.2375 32.1457L21.9637 29.3291ZM20.0274 24.8007L18.246 22.2744L18.246 22.2744L20.0274 24.8007ZM21.979 22.5899L24.6812 24.0911L24.6812 24.0911L21.979 22.5899ZM23.1073 19.571L26.1249 20.2415L26.1262 20.2357L23.1073 19.571ZM23.0158 13.6398L20.2249 14.9688C20.2276 14.9747 20.2304 14.9805 20.2332 14.9862L23.0158 13.6398ZM21.796 12.2828L20.3471 15.0134C20.3547 15.0175 20.3623 15.0214 20.3699 15.0254L21.796 12.2828ZM17.2676 12.6793L18.9823 15.2513L18.9823 15.2513L17.2676 12.6793ZM15.316 14.7986L12.6359 13.2583C12.6314 13.2661 12.627 13.2739 12.6226 13.2817L15.316 14.7986ZM14.8281 24.6635L12.6084 26.8149C12.614 26.8206 12.6195 26.8263 12.6251 26.832L14.8281 24.6635ZM16.6425 27.3052C15.4104 27.3052 14.3743 27.0514 13.4752 26.5919L10.6615 32.0969C12.5069 33.0401 14.5202 33.4876 16.6425 33.4876V27.3052ZM13.4835 26.5961C12.6698 26.1771 12.0137 25.5614 11.4937 24.666L6.14776 27.7714C7.23372 29.6409 8.74279 31.1089 10.6532 32.0926L13.4835 26.5961ZM11.4937 24.666C11.0295 23.867 10.7074 22.7289 10.7074 21.0957H4.525C4.525 23.5284 5.00591 25.8057 6.14776 27.7714L11.4937 24.666ZM10.7074 21.0957C10.7074 19.4401 10.9654 17.9703 11.4478 16.6577L5.64478 14.5253C4.88701 16.5874 4.525 18.787 4.525 21.0957H10.7074ZM11.4498 16.6521C11.9403 15.3092 12.6221 14.1826 13.4841 13.2367L8.91447 9.07245C7.47923 10.6474 6.3923 12.4788 5.64271 14.5309L11.4498 16.6521ZM13.4924 13.2275C14.3432 12.2863 15.3558 11.5557 16.5597 11.0266L14.0723 5.36667C12.0844 6.24031 10.3526 7.48162 8.90617 9.0816L13.4924 13.2275ZM16.5681 11.0229C17.7361 10.5054 19.0867 10.2205 20.6677 10.2205V4.03813C18.3252 4.03813 16.1079 4.46477 14.0639 5.37038L16.5681 11.0229ZM20.6677 10.2205C21.9474 10.2205 22.9939 10.4763 23.8735 10.9227L26.6712 5.40955C24.8267 4.47353 22.8035 4.03813 20.6677 4.03813V10.2205ZM23.8735 10.9227C24.6869 11.3355 25.3299 11.9365 25.8332 12.8011L31.1763 9.69096C30.0939 7.83145 28.582 6.3792 26.6712 5.40955L23.8735 10.9227ZM25.8419 12.8159C26.2964 13.5869 26.6181 14.7012 26.6181 16.3233H32.8005C32.8005 13.8999 32.3191 11.6293 31.1676 9.67614L25.8419 12.8159ZM26.6181 16.3233C26.6181 17.9606 26.3575 19.435 25.8639 20.7725L31.664 22.913C32.4308 20.8352 32.8005 18.63 32.8005 16.3233H26.6181ZM25.8604 20.7822C25.3698 22.1253 24.6799 23.2751 23.7953 24.2605L28.3961 28.3903C29.8291 26.7939 30.918 24.9553 31.6675 22.9034L25.8604 20.7822ZM23.8035 24.2515C22.9337 25.2129 21.9046 25.9633 20.69 26.5126L23.2375 32.1457C25.2146 31.2516 26.9402 29.9995 28.3879 28.3994L23.8035 24.2515ZM20.7049 26.5058C19.5492 27.0211 18.2113 27.3052 16.6425 27.3052V33.4876C18.977 33.4876 21.1865 33.0602 23.2225 32.1524L20.7049 26.5058ZM17.1914 28.7305C18.8398 28.7305 20.4276 28.3009 21.8087 27.327L18.246 22.2744C18.0414 22.4187 17.7386 22.5481 17.1914 22.5481V28.7305ZM21.8087 27.327C23.0111 26.4792 23.9651 25.38 24.6812 24.0911L19.2768 21.0887C18.9763 21.6295 18.6293 22.0041 18.246 22.2744L21.8087 27.327ZM24.6812 24.0911C25.3444 22.8974 25.8211 21.6084 26.1249 20.2415L20.0897 18.9004C19.9055 19.7292 19.6301 20.4528 19.2768 21.0887L24.6812 24.0911ZM26.1262 20.2357C26.4166 18.9167 26.5644 17.591 26.5644 16.2623H20.382C20.382 17.1293 20.2859 18.0093 20.0884 18.9063L26.1262 20.2357ZM26.5644 16.2623C26.5644 14.926 26.3922 13.5207 25.7984 12.2934L20.2332 14.9862C20.2326 14.9849 20.2742 15.0732 20.3136 15.2993C20.3526 15.5227 20.382 15.8378 20.382 16.2623H26.5644ZM25.8067 12.3108C25.2828 11.2107 24.4571 10.1825 23.2221 9.54029L20.3699 15.0254C20.3253 15.0022 20.2856 14.9761 20.2519 14.9498C20.2185 14.9236 20.196 14.901 20.1832 14.8868C20.1582 14.8589 20.1794 14.8734 20.2249 14.9688L25.8067 12.3108ZM23.2449 9.55224C22.2573 9.02822 21.1927 8.79523 20.1188 8.79523V14.9776C20.2851 14.9776 20.3386 15.0089 20.3471 15.0134L23.2449 9.55224ZM20.1188 8.79523C18.5024 8.79523 16.9321 9.18779 15.5529 10.1072L18.9823 15.2513C19.1888 15.1136 19.5194 14.9776 20.1188 14.9776V8.79523ZM15.5529 10.1072C14.3353 10.919 13.3648 11.99 12.6359 13.2583L17.9961 16.3389C18.2836 15.8386 18.6142 15.4967 18.9823 15.2513L15.5529 10.1072ZM12.6226 13.2817C11.958 14.4616 11.4889 15.7443 11.196 17.1069L17.2404 18.4062C17.415 17.5936 17.6778 16.9043 18.0094 16.3156L12.6226 13.2817ZM11.196 17.1069C10.9157 18.4111 10.7763 19.7369 10.7763 21.0804H16.9587C16.9587 20.1674 17.0531 19.2773 17.2404 18.4062L11.196 17.1069ZM10.7763 21.0804C10.7763 22.9832 11.0872 25.2454 12.6084 26.8149L17.0478 22.5121C17.1982 22.6674 17.1623 22.7287 17.0934 22.4718C17.0249 22.216 16.9587 21.7724 16.9587 21.0804H10.7763ZM12.6251 26.832C13.8623 28.0889 15.4507 28.7305 17.1914 28.7305V22.5481C17.1373 22.5481 17.1053 22.5435 17.0911 22.5408C17.0775 22.5382 17.075 22.5365 17.0789 22.5382C17.083 22.5398 17.0841 22.541 17.0799 22.5381C17.0753 22.535 17.0586 22.523 17.031 22.495L12.6251 26.832Z" fill="white" mask="url(#path-2-outside-1_65_2)"/>
</svg>
